<svg width="20" height="19" viewBox="0 0 20 19" fill="none" xmlns="http://www.w3.org/2000/svg">
<path fill-rule="evenodd" clip-rule="evenodd" d="M10.2673 0.78448C10.1101 0.787491 9.96029 0.85207 9.85016 0.964347C9.74003 1.07662 9.67835 1.22762 9.67838 1.38489V12.7976C9.67838 12.9569 9.74164 13.1096 9.85423 13.2222C9.96684 13.3348 10.1196 13.398 10.2788 13.398C10.438 13.398 10.5908 13.3348 10.7034 13.2222C10.816 13.1096 10.8792 12.9569 10.8792 12.7976V1.38489C10.8793 1.30515 10.8633 1.22619 10.8325 1.15264C10.8017 1.07909 10.7565 1.01242 10.6996 0.956522C10.6427 0.900625 10.5752 0.856627 10.5012 0.827089C10.4271 0.797551 10.3479 0.783062 10.2681 0.78448H10.2673ZM19.3523 4.20323C19.2738 4.20549 19.1966 4.22304 19.125 4.2549L13.9723 6.55483C13.8669 6.60246 13.7775 6.67948 13.7147 6.77667C13.652 6.87386 13.6186 6.98708 13.6186 7.10275C13.6186 7.21843 13.652 7.33165 13.7147 7.42884C13.7775 7.52602 13.8669 7.60304 13.9723 7.65067L19.125 9.95796C19.2025 9.9928 19.2862 10.011 19.3711 10.0113C19.5084 10.0109 19.6413 9.96337 19.7478 9.87685C19.8544 9.79024 19.9281 9.66976 19.9565 9.5355C19.9851 9.40121 19.9667 9.26123 19.9044 9.13885C19.8422 9.01647 19.74 8.91911 19.6147 8.86298L15.6891 7.10357L19.6147 5.35073C19.7597 5.28547 19.8728 5.16554 19.9297 5.01711C19.9866 4.86867 19.9825 4.70377 19.9182 4.55838C19.8695 4.44991 19.7898 4.35829 19.689 4.29509C19.5883 4.23188 19.4711 4.19991 19.3523 4.20323ZM0.629063 8.38832C0.712717 8.34871 0.804399 8.32896 0.896945 8.33065V8.33146C1.02776 8.33401 1.15415 8.37923 1.25691 8.46022C1.35966 8.5412 1.43315 8.65354 1.46619 8.78014C2.09462 11.1874 3.50383 13.3182 5.47307 14.8387C7.4423 16.3592 9.8603 17.1836 12.3482 17.1826C12.5075 17.1826 12.6602 17.2459 12.7728 17.3585C12.8854 17.4711 12.9486 17.6238 12.9486 17.783C12.9486 17.9423 12.8854 18.095 12.7728 18.2076C12.6602 18.3202 12.5075 18.3834 12.3482 18.3834C6.68206 18.3834 1.72866 14.5579 0.304736 9.08116C0.28158 8.99154 0.279458 8.89778 0.298536 8.80721C0.317613 8.71663 0.357374 8.6317 0.414711 8.55903C0.472049 8.48637 0.54541 8.42794 0.629063 8.38832Z" fill="white"/>
</svg>
